<?xml version="1.0" encoding="utf-8"?>
<!-- Generator: Adobe Illustrator 15.0.2, SVG Export Plug-In . SVG Version: 6.00 Build 0)  -->
<!DOCTYPE svg PUBLIC "-//W3C//DTD SVG 1.1//EN" "http://www.w3.org/Graphics/SVG/1.1/DTD/svg11.dtd">
<svg version="1.1" id="Layer_1" xmlns="http://www.w3.org/2000/svg" xmlns:xlink="http://www.w3.org/1999/xlink" x="0px" y="0px"
	 width="83.767px" height="83.767px" viewBox="0 0 83.767 83.767" enable-background="new 0 0 83.767 83.767" xml:space="preserve">
<path fill="#ffffff" d="M62.882,27.865H23.509c-0.076,0-0.144,0.027-0.216,0.044l-1.603-5.318c-0.019-0.059-0.057-0.103-0.083-0.154
	c-0.046-0.547-0.49-0.979-1.048-0.979c-0.002,0-0.002,0-0.004,0l-5.211,0.022c-0.586,0.002-1.062,0.482-1.058,1.068
	c0.002,0.586,0.479,1.06,1.064,1.06c0,0,0.002,0,0.004,0l4.412-0.019l9.696,32.178c-1.345,0.908-2.23,2.446-2.23,4.192
	c0,2.791,2.264,5.055,5.056,5.055c2.791,0,5.055-2.264,5.055-5.055c0-0.302-0.039-0.595-0.089-0.881h14.082
	c-0.05,0.286-0.09,0.579-0.09,0.881c0,2.791,2.264,5.055,5.055,5.055s5.055-2.264,5.055-5.055s-2.264-5.055-5.055-5.055
	c-1.658,0-3.117,0.811-4.04,2.045H36.327c-0.92-1.234-2.379-2.045-4.038-2.045c-0.287,0-0.565,0.039-0.838,0.085l-1.12-3.716
	l26.809-0.021c0.47,0,0.854-0.31,0.995-0.731c0.038-0.069,0.077-0.134,0.098-0.21l5.675-20.928c0.037-0.133,0.041-0.267,0.026-0.395
	c0-0.021,0.013-0.04,0.013-0.061C63.946,28.342,63.471,27.865,62.882,27.865z M57.932,59.96c0,0.9-0.729,1.63-1.63,1.63
	c-0.899,0-1.629-0.729-1.629-1.63s0.729-1.63,1.629-1.63C57.202,58.33,57.932,59.06,57.932,59.96z M33.862,59.973
	c0,0.899-0.729,1.629-1.629,1.629c-0.9,0-1.63-0.729-1.63-1.629c0-0.9,0.729-1.63,1.63-1.63
	C33.133,58.343,33.862,59.072,33.862,59.973z M29.72,35.974c0-1.322,1.071-2.395,2.393-2.395c1.322,0,2.395,1.072,2.395,2.395
	c0,1.323-1.072,2.394-2.395,2.394C30.791,38.367,29.72,37.297,29.72,35.974z M35.903,45.284c-1.321,0-2.395-1.07-2.395-2.395
	c0-1.321,1.073-2.394,2.395-2.394c1.322,0,2.395,1.072,2.395,2.394C38.298,44.214,37.226,45.284,35.903,45.284z M37.412,35.974
	c0-1.322,1.073-2.395,2.395-2.395s2.394,1.072,2.394,2.395c0,1.323-1.072,2.394-2.394,2.394S37.412,37.297,37.412,35.974z
	 M43.717,45.284c-1.321,0-2.394-1.07-2.394-2.395c0-1.321,1.072-2.394,2.394-2.394c1.322,0,2.395,1.072,2.395,2.394
	C46.111,44.214,45.039,45.284,43.717,45.284z M45.104,35.974c0-1.322,1.072-2.395,2.395-2.395c1.321,0,2.395,1.072,2.395,2.395
	c0,1.323-1.073,2.394-2.395,2.394C46.176,38.367,45.104,37.297,45.104,35.974z M51.532,45.284c-1.322,0-2.395-1.07-2.395-2.395
	c0-1.321,1.072-2.394,2.395-2.394c1.321,0,2.395,1.072,2.395,2.394C53.927,44.214,52.854,45.284,51.532,45.284z M55.19,38.367
	c-1.322,0-2.395-1.07-2.395-2.394c0-1.322,1.072-2.395,2.395-2.395c1.321,0,2.394,1.072,2.394,2.395
	C57.584,37.297,56.512,38.367,55.19,38.367z"/>
</svg>
