<?xml version="1.0" encoding="utf-8"?>
<!-- Generator: Adobe Illustrator 15.0.2, SVG Export Plug-In . SVG Version: 6.00 Build 0)  -->
<!DOCTYPE svg PUBLIC "-//W3C//DTD SVG 1.1//EN" "http://www.w3.org/Graphics/SVG/1.1/DTD/svg11.dtd">
<svg version="1.1" id="Layer_1" xmlns="http://www.w3.org/2000/svg" xmlns:xlink="http://www.w3.org/1999/xlink" x="0px" y="0px"
	 width="83.767px" height="83.767px" viewBox="0 0 83.767 83.767" enable-background="new 0 0 83.767 83.767" xml:space="preserve">
<path fill="#ffffff" d="M48.136,25.786c0,3.869-3.139,7.008-7.01,7.008c-3.869,0-7.006-3.139-7.006-7.008
	c0-3.871,3.137-7.008,7.006-7.008C44.997,18.778,48.136,21.915,48.136,25.786z M66.89,44.728c-0.205,0.186-0.52,0.17-0.707-0.035
	c-0.117-0.125-0.475-0.285-0.9-0.426c-0.082,0.348-0.227,0.674-0.43,0.934c-0.273,0.354-0.627,0.541-1.004,0.541
	c-0.057,0-0.115-0.004-0.172-0.012c-0.711-0.107-1.209-0.494-1.369-1.064c-0.15-0.529,0.037-1.123,0.465-1.48
	c0.301-0.25,0.857-0.285,1.473-0.197c-0.111-0.248-0.289-0.379-0.557-0.412c-0.811-0.104-1.797,0.316-2.557,0.75
	c0.279,1.182,0.428,2.406,0.428,3.66c0,6.258-3.65,11.756-9.17,14.947c0.002,0.033,0.016,0.061,0.016,0.094v4.373
	c0,0.717-0.471,1.295-1.051,1.295h-3.811c-0.582,0-1.051-0.578-1.051-1.295v-2.156c-1.656,0.385-3.387,0.611-5.182,0.611
	c-2.006,0-3.939-0.266-5.77-0.746v2.184c0,0.715-0.471,1.295-1.051,1.295h-3.811c-0.58,0-1.051-0.58-1.051-1.295v-4.373
	c0-0.113,0.029-0.215,0.051-0.32c-2.068-1.285-3.854-2.896-5.252-4.758h-4.916c-1.16,0-2.102-0.941-2.102-2.104v-8.936
	c0-1.16,0.941-2.102,2.102-2.102h1.908c0.531-2.525,1.66-4.863,3.26-6.895l-2.494-3.342c1.463-1.092,3.596-0.891,5.514,0.318
	c1.439-1.156,3.072-2.123,4.84-2.881c0.5,0.834,1.115,1.59,1.828,2.244c-0.51,0.201-1.014,0.42-1.5,0.666
	c-0.492,0.25-0.688,0.852-0.438,1.344c0.25,0.494,0.852,0.691,1.344,0.439c0.814-0.414,1.674-0.756,2.561-1.027
	c1.424,0.781,3.057,1.227,4.791,1.227c1.785,0,3.459-0.475,4.91-1.297c1.102,0.318,2.166,0.742,3.16,1.281
	c0.152,0.082,0.314,0.119,0.475,0.119c0.355,0,0.701-0.189,0.881-0.523c0.264-0.486,0.082-1.094-0.404-1.355
	c-0.689-0.373-1.408-0.697-2.146-0.979c0.701-0.664,1.307-1.43,1.793-2.271c5.385,2.203,9.488,6.432,11.055,11.582
	c0.84-0.453,1.945-0.889,2.963-0.768c0.637,0.08,1.125,0.455,1.373,1.057c0.078,0.186,0.129,0.391,0.156,0.602
	c0.727,0.229,1.369,0.543,1.582,0.779C67.108,44.226,67.093,44.542,66.89,44.728z M30.888,43.612c0-1.244-1.008-2.25-2.25-2.25
	c-1.244,0-2.25,1.006-2.25,2.25c0,1.242,1.006,2.25,2.25,2.25C29.88,45.862,30.888,44.854,30.888,43.612z M64.313,44.007
	c-0.252-0.051-0.482-0.08-0.658-0.08c-0.115,0-0.205,0.012-0.264,0.041c-0.104,0.09-0.164,0.275-0.121,0.428
	c0.066,0.238,0.375,0.316,0.553,0.344c0.102-0.002,0.182-0.076,0.242-0.152C64.173,44.446,64.263,44.239,64.313,44.007z"/>
</svg>
