<?xml version="1.0" encoding="utf-8"?>
<!-- Generator: Adobe Illustrator 15.0.2, SVG Export Plug-In . SVG Version: 6.00 Build 0)  -->
<!DOCTYPE svg PUBLIC "-//W3C//DTD SVG 1.1//EN" "http://www.w3.org/Graphics/SVG/1.1/DTD/svg11.dtd">
<svg version="1.1" id="Layer_1" xmlns="http://www.w3.org/2000/svg" xmlns:xlink="http://www.w3.org/1999/xlink" x="0px" y="0px"
	 width="83.767px" height="83.767px" viewBox="0 0 83.767 83.767" enable-background="new 0 0 83.767 83.767" xml:space="preserve">
<g>
	<path fill="#919396" d="M17.285,36.46v27.408c0,2.884,2.337,5.221,5.221,5.221H64.14c2.884,0,5.221-2.337,5.221-5.221V36.46H17.285
		z"/>
	<path fill="#919396" d="M27.399,24.322v-5.09c0-1.297,1.053-2.35,2.35-2.35s2.35,1.053,2.35,2.35v5.09
		c0,1.297-1.053,2.35-2.35,2.35S27.399,25.619,27.399,24.322z"/>
	<path fill="#919396" d="M54.547,24.322v-5.09c0-1.297,1.053-2.35,2.35-2.35s2.349,1.053,2.349,2.35v5.09
		c0,1.297-1.052,2.35-2.349,2.35S54.547,25.619,54.547,24.322z"/>
	<path fill="#919396" d="M69.36,26.41v7.31H17.285v-7.31c0-2.884,2.337-5.221,5.221-5.221h2.283v3.133c0,2.734,2.226,4.96,4.96,4.96
		s4.96-2.226,4.96-4.96v-3.133h17.228v3.133c0,2.734,2.225,4.96,4.96,4.96c2.734,0,4.959-2.226,4.959-4.96v-3.133h2.284
		C67.023,21.189,69.36,23.526,69.36,26.41z"/>
</g>
</svg>
