<?xml version="1.0" encoding="utf-8"?>
<!-- Generator: Adobe Illustrator 15.0.2, SVG Export Plug-In . SVG Version: 6.00 Build 0)  -->
<!DOCTYPE svg PUBLIC "-//W3C//DTD SVG 1.1//EN" "http://www.w3.org/Graphics/SVG/1.1/DTD/svg11.dtd">
<svg version="1.1" id="Layer_1" xmlns="http://www.w3.org/2000/svg" xmlns:xlink="http://www.w3.org/1999/xlink" x="0px" y="0px"
	 width="83.767px" height="83.767px" viewBox="0 0 83.767 83.767" enable-background="new 0 0 83.767 83.767" xml:space="preserve">
<path fill="#919396" d="M51.421,46.441v2.215H31.664l11.296,6.908l12.574-7.689l8.331-5.096V24.717c0-2.209-1.791-4-4-4H26.323
	c-2.209,0-4,1.791-4,4v18.227l5.721,3.498H51.421z M27.671,27.109h19.583v2.213H27.671V27.109z M27.671,35.109H58.42v2.213H27.671
	V35.109z M27.671,40.775H58.42v2.215H27.671V40.775z M49.405,55.141l18.339,11.076c-0.426,2.33-2.457,4.098-4.908,4.098h-39.75
	c-2.452,0-4.482-1.768-4.909-4.096l18.34-11.078l4.878,2.982l1.565,0.957l1.566-0.957L49.405,55.141z M33.634,53.377l-15.548,9.391
	V43.869l10.736,6.564L33.634,53.377z M67.836,43.869v18.898l-15.548-9.391l4.81-2.943L67.836,43.869z"/>
</svg>
