<?xml version="1.0" encoding="utf-8"?>
<!-- Generator: Adobe Illustrator 15.0.2, SVG Export Plug-In . SVG Version: 6.00 Build 0)  -->
<!DOCTYPE svg PUBLIC "-//W3C//DTD SVG 1.1//EN" "http://www.w3.org/Graphics/SVG/1.1/DTD/svg11.dtd">
<svg version="1.1" id="Layer_1" xmlns="http://www.w3.org/2000/svg" xmlns:xlink="http://www.w3.org/1999/xlink" x="0px" y="0px"
	 width="83.767px" height="83.767px" viewBox="0 0 83.767 83.767" enable-background="new 0 0 83.767 83.767" xml:space="preserve">
<path fill="#919396" d="M67.219,45.153c0,6.682-2.602,12.963-7.324,17.686c-0.293,0.293-0.677,0.439-1.061,0.439
	s-0.768-0.146-1.061-0.439c-0.586-0.586-0.586-1.535,0-2.121c4.156-4.156,6.445-9.684,6.445-15.564
	c0-5.879-2.29-11.408-6.449-15.566c-0.586-0.584-0.586-1.535,0-2.121s1.535-0.586,2.121,0C64.616,32.19,67.219,38.472,67.219,45.153
	z M53.052,34.304c-0.586-0.586-1.536-0.586-2.122,0c-0.585,0.586-0.585,1.535,0.001,2.121c2.333,2.332,3.618,5.432,3.618,8.729
	s-1.283,6.395-3.614,8.727c-0.586,0.586-0.586,1.535,0,2.121c0.293,0.293,0.677,0.439,1.061,0.439s0.768-0.146,1.061-0.439
	c2.897-2.898,4.493-6.75,4.493-10.848C57.549,41.054,55.951,37.2,53.052,34.304z M17.245,40.362v9.889c0,2.209,1.791,4,4,4h3.492
	V36.362h-3.492C19.036,36.362,17.245,38.153,17.245,40.362z M44.612,39.21V25.854c0-0.82-0.664-1.484-1.483-1.484
	c-0.82,0-1.484,0.664-1.484,1.484v0.152c-0.258,0.082-0.523,0.195-0.802,0.371l-10.145,6.4c-0.822,0.52-1.883,1.188-2.961,1.867
	v21.32c1.078,0.682,2.139,1.35,2.961,1.869l10.145,6.402c0.278,0.176,0.544,0.287,0.802,0.371v0.152
	c0,0.818,0.664,1.484,1.484,1.484c0.819,0,1.483-0.666,1.483-1.484V51.403c1.787-1.432,2.936-3.629,2.936-6.096
	C47.548,42.839,46.399,40.642,44.612,39.21z"/>
</svg>
