<?xml version="1.0" encoding="utf-8"?>
<!-- Generator: Adobe Illustrator 15.0.2, SVG Export Plug-In . SVG Version: 6.00 Build 0)  -->
<!DOCTYPE svg PUBLIC "-//W3C//DTD SVG 1.1//EN" "http://www.w3.org/Graphics/SVG/1.1/DTD/svg11.dtd">
<svg version="1.1" id="Layer_1" xmlns="http://www.w3.org/2000/svg" xmlns:xlink="http://www.w3.org/1999/xlink" x="0px" y="0px"
	 width="83.767px" height="83.767px" viewBox="0 0 83.767 83.767" enable-background="new 0 0 83.767 83.767" xml:space="preserve">
<path fill="#919396" d="M21.246,36.362h3.492v17.889h-3.492c-2.209,0-4-1.791-4-4v-9.889C17.246,38.153,19.037,36.362,21.246,36.362
	z M44.613,39.21V25.853c0-0.818-0.664-1.482-1.483-1.482c-0.82,0-1.484,0.664-1.484,1.482v0.152
	c-0.258,0.084-0.523,0.197-0.802,0.373l-10.145,6.4c-0.822,0.518-1.883,1.188-2.961,1.867v21.32c1.078,0.682,2.139,1.35,2.961,1.869
	l10.145,6.402c0.278,0.176,0.544,0.287,0.802,0.371v0.152c0,0.818,0.664,1.484,1.484,1.484c0.819,0,1.483-0.666,1.483-1.484V51.403
	c1.787-1.432,2.935-3.629,2.935-6.096C47.548,42.839,46.4,40.642,44.613,39.21z M62.914,45.306l3.597-3.596
	c0.943-0.943,0.943-2.475,0-3.418c-0.944-0.943-2.475-0.943-3.419,0l-3.596,3.596l-3.597-3.596c-0.943-0.943-2.474-0.943-3.417,0
	c-0.945,0.943-0.945,2.475,0,3.418l3.596,3.596l-3.596,3.598c-0.943,0.943-0.943,2.473,0,3.418c0.943,0.943,2.473,0.943,3.418,0
	l3.596-3.598l3.596,3.598c0.943,0.943,2.475,0.943,3.418,0c0.944-0.945,0.944-2.475,0-3.42L62.914,45.306z"/>
</svg>
