<?xml version="1.0" encoding="utf-8"?>
<!-- Generator: Adobe Illustrator 15.0.2, SVG Export Plug-In . SVG Version: 6.00 Build 0)  -->
<!DOCTYPE svg PUBLIC "-//W3C//DTD SVG 1.1//EN" "http://www.w3.org/Graphics/SVG/1.1/DTD/svg11.dtd">
<svg version="1.1" id="Layer_1" xmlns="http://www.w3.org/2000/svg" xmlns:xlink="http://www.w3.org/1999/xlink" x="0px" y="0px"
	 width="83.767px" height="83.767px" viewBox="0 0 83.767 83.767" enable-background="new 0 0 83.767 83.767" xml:space="preserve">
<path fill="#919396" d="M52.49,45.18L39.045,58.625c-1.041,1.04-2.728,1.04-3.769,0c-1.041-1.041-1.041-2.728,0-3.769l11.562-11.559
	L35.276,31.735c-1.041-1.04-1.041-2.728,0-3.769c0.521-0.521,1.202-0.78,1.884-0.78s1.364,0.26,1.885,0.78l13.441,13.442
	c0.001,0.001,0.002,0.001,0.004,0.003C53.531,42.453,53.531,44.141,52.49,45.18z"/>
<path fill="#919396" d="M50.607,45.961H20.285c-1.473-0.001-2.664-1.193-2.666-2.665c0-1.473,1.193-2.665,2.666-2.665l27.656,0.002
	l5.328,2.659c0,0.001,0.002,0.002,0.002,0.005C53.271,44.769,52.078,45.962,50.607,45.961z"/>
</svg>
