<?xml version="1.0" encoding="utf-8"?>
<!-- Generator: Adobe Illustrator 15.0.2, SVG Export Plug-In . SVG Version: 6.00 Build 0)  -->
<!DOCTYPE svg PUBLIC "-//W3C//DTD SVG 1.1//EN" "http://www.w3.org/Graphics/SVG/1.1/DTD/svg11.dtd">
<svg version="1.1" id="Layer_1" xmlns="http://www.w3.org/2000/svg" xmlns:xlink="http://www.w3.org/1999/xlink" x="0px" y="0px"
	 width="83.767px" height="83.767px" viewBox="0 0 83.767 83.767" enable-background="new 0 0 83.767 83.767" xml:space="preserve">
<path fill="#919396" d="M65.247,59.208l-8.83-8.831l-1.6-1.599c-0.064-0.064-0.139-0.108-0.205-0.169
	c1.719-2.966,2.719-6.401,2.719-10.076c0-11.127-9.02-20.146-20.146-20.146s-20.146,9.02-20.146,20.146s9.02,20.146,20.146,20.146
	c3.611,0,6.992-0.963,9.924-2.627c0.068,0.078,0.121,0.165,0.195,0.239l1.6,1.599l8.83,8.831c1.979,1.977,5.184,1.977,7.16,0
	l0.354-0.354C67.224,64.391,67.224,61.186,65.247,59.208z M37.187,53.993c-8.539,0-15.463-6.919-15.463-15.46
	c0-8.54,6.924-15.461,15.463-15.461c8.537,0,15.457,6.921,15.457,15.461C52.644,47.074,45.724,53.993,37.187,53.993z"/>
</svg>
