<?xml version="1.0" encoding="utf-8"?>
<!-- Generator: Adobe Illustrator 15.0.2, SVG Export Plug-In . SVG Version: 6.00 Build 0)  -->
<!DOCTYPE svg PUBLIC "-//W3C//DTD SVG 1.1//EN" "http://www.w3.org/Graphics/SVG/1.1/DTD/svg11.dtd">
<svg version="1.1" id="Layer_1" xmlns="http://www.w3.org/2000/svg" xmlns:xlink="http://www.w3.org/1999/xlink" x="0px" y="0px"
	 width="83.767px" height="83.767px" viewBox="0 0 83.767 83.767" enable-background="new 0 0 83.767 83.767" xml:space="preserve">
<path fill="#919396" d="M67.179,41.076l-1.11,12.515c-0.099,1.128-0.833,1.633-1.516,1.633c-0.316,0-0.8-0.104-1.302-0.608
	l-4.378-4.378L44.712,61.546v6.206c0,1.374-1.114,2.488-2.489,2.488s-2.488-1.114-2.488-2.488v-6.206L25.582,50.245l-4.365,4.368
	c-0.502,0.502-0.986,0.606-1.301,0.606c-0.683,0-1.418-0.503-1.518-1.631l-1.113-12.513c-0.057-0.636,0.139-1.232,0.549-1.682
	c0.45-0.491,1.098-0.739,1.812-0.679l12.515,1.11c1.094,0.097,1.446,0.755,1.547,1.032c0.102,0.278,0.253,1.01-0.522,1.785
	l-4.06,4.061l10.609,8.473V33.492H33.77c-1.097,0-1.507-0.624-1.633-0.893c-0.125-0.269-0.34-0.981,0.365-1.823l8.063-9.635
	c0.855-1.021,2.484-1.02,3.339,0.002l8.061,9.633c0.704,0.84,0.49,1.555,0.364,1.823c-0.125,0.269-0.534,0.893-1.632,0.893h-5.984
	v21.685l10.62-8.48l-4.05-4.049c-0.775-0.778-0.624-1.507-0.522-1.787c0.101-0.277,0.453-0.936,1.547-1.032l12.512-1.112
	c0.714-0.061,1.362,0.188,1.812,0.681C67.041,39.844,67.235,40.44,67.179,41.076z"/>
</svg>
