<?xml version="1.0" encoding="utf-8"?>
<!-- Generator: Adobe Illustrator 15.0.2, SVG Export Plug-In . SVG Version: 6.00 Build 0)  -->
<!DOCTYPE svg PUBLIC "-//W3C//DTD SVG 1.1//EN" "http://www.w3.org/Graphics/SVG/1.1/DTD/svg11.dtd">
<svg version="1.1" id="Layer_1" xmlns="http://www.w3.org/2000/svg" xmlns:xlink="http://www.w3.org/1999/xlink" x="0px" y="0px"
	 width="83.767px" height="83.767px" viewBox="0 0 83.767 83.767" enable-background="new 0 0 83.767 83.767" xml:space="preserve">
<g>
	<path fill="#919396" d="M55.769,48.339c-2.877,0-5.402,1.368-7.057,3.463l-15.361-7.853c0.196-0.749,0.34-1.521,0.34-2.337
		c0-0.893-0.163-1.732-0.407-2.537l15.285-7.818c1.654,2.194,4.245,3.616,7.2,3.616c5.007,0,9.043-4.036,9.043-9.031
		c0-4.996-4.036-9.043-9.043-9.043c-4.984,0-9.03,4.047-9.03,9.043c0,0.817,0.144,1.588,0.34,2.337l-15.349,7.854
		c-1.656-2.096-4.192-3.464-7.069-3.464c-4.996,0-9.043,4.05-9.043,9.044c0,4.993,4.047,9.043,9.043,9.043
		c2.955,0,5.546-1.445,7.2-3.641l15.285,7.82c-0.244,0.814-0.42,1.654-0.42,2.547c0,4.994,4.059,9.043,9.043,9.043
		c4.996,0,9.043-4.049,9.043-9.043C64.812,52.385,60.765,48.339,55.769,48.339L55.769,48.339z M55.769,48.339"/>
</g>
</svg>
