<?xml version="1.0" encoding="utf-8"?>
<!-- Generator: Adobe Illustrator 15.0.2, SVG Export Plug-In . SVG Version: 6.00 Build 0)  -->
<!DOCTYPE svg PUBLIC "-//W3C//DTD SVG 1.1//EN" "http://www.w3.org/Graphics/SVG/1.1/DTD/svg11.dtd">
<svg version="1.1" id="Layer_1" xmlns="http://www.w3.org/2000/svg" xmlns:xlink="http://www.w3.org/1999/xlink" x="0px" y="0px"
	 width="83.767px" height="83.767px" viewBox="0 0 83.767 83.767" enable-background="new 0 0 83.767 83.767" xml:space="preserve">
<path fill="#919396" d="M22.794,22.746c0-0.222,0.02-0.437,0.033-0.652c0.339-5.414,4.823-9.702,10.321-9.702
	c5.719,0,10.353,4.636,10.353,10.354c0,0.003,0,0.008,0,0.008c-0.005,3.564-1.807,6.705-4.55,8.565
	c-0.005,0.003-0.009,0.008-0.016,0.014c-0.232,0.153-0.474,0.296-0.719,0.434c-0.049,0.027-0.095,0.061-0.145,0.089
	c-0.209,0.111-0.428,0.212-0.646,0.309c-0.09,0.041-0.173,0.088-0.263,0.126c-0.191,0.08-0.394,0.146-0.591,0.216
	c-0.12,0.041-0.237,0.091-0.36,0.131c-0.183,0.058-0.372,0.098-0.558,0.143c-0.144,0.036-0.284,0.078-0.431,0.109
	c-0.188,0.039-0.379,0.061-0.568,0.087c-0.152,0.024-0.303,0.056-0.454,0.069c-0.347,0.035-0.696,0.054-1.052,0.054
	c-1.076-0.002-2.114-0.165-3.089-0.47c-0.151-0.048-0.295-0.107-0.444-0.161c-0.168-0.062-0.338-0.117-0.5-0.185
	C25.401,30.711,22.794,27.032,22.794,22.746z M41.405,38.327c-2.455-1.357-5.274-2.136-8.279-2.136
	c-9.466,0-17.141,7.673-17.141,17.141c0,0.23,0.024,0.458,0.033,0.688h18.788c-0.045-0.527-0.081-1.059-0.081-1.598
	C34.726,46.749,37.331,41.675,41.405,38.327z M67.781,52.423c0,8.183-6.635,14.817-14.818,14.817
	c-8.182,0-14.816-6.635-14.816-14.817c0-8.185,6.635-14.818,14.816-14.818C61.146,37.604,67.781,44.238,67.781,52.423z
	 M61.345,50.728h-6.686v-6.686h-3.39v6.686h-6.685v3.389h6.685v6.687h3.39v-6.687h6.686V50.728z"/>
</svg>
