<?xml version="1.0" encoding="utf-8"?>
<!-- Generator: Adobe Illustrator 15.0.2, SVG Export Plug-In . SVG Version: 6.00 Build 0)  -->
<!DOCTYPE svg PUBLIC "-//W3C//DTD SVG 1.1//EN" "http://www.w3.org/Graphics/SVG/1.1/DTD/svg11.dtd">
<svg version="1.1" id="Layer_1" xmlns="http://www.w3.org/2000/svg" xmlns:xlink="http://www.w3.org/1999/xlink" x="0px" y="0px"
	 width="83.767px" height="83.767px" viewBox="0 0 83.767 83.767" enable-background="new 0 0 83.767 83.767" xml:space="preserve">
<path fill="#919396" d="M48.912,38.466c0-0.034-0.005-0.07-0.005-0.104c0-0.174,0.016-0.341,0.025-0.51
	c0.041-0.647,0.167-1.267,0.35-1.863c1.01-3.298,4.068-5.702,7.7-5.702c3.486,0,6.448,2.212,7.575,5.305
	c0.319,0.864,0.5,1.794,0.5,2.771c0,0.002-0.002,0.004-0.002,0.009c0,1.113-0.235,2.169-0.645,3.134
	c-0.61,1.442-1.62,2.674-2.9,3.543c-0.007,0.002-0.01,0.007-0.014,0.009c-0.181,0.123-0.37,0.235-0.561,0.343
	c-0.038,0.021-0.073,0.046-0.114,0.066c-0.162,0.087-0.333,0.165-0.5,0.24c-0.071,0.032-0.138,0.07-0.208,0.101
	c-0.148,0.062-0.307,0.114-0.46,0.167c-0.094,0.034-0.185,0.073-0.281,0.104c-0.144,0.041-0.287,0.073-0.434,0.11
	c-0.114,0.027-0.222,0.06-0.336,0.084c-0.148,0.03-0.298,0.046-0.443,0.069c-0.119,0.016-0.236,0.041-0.354,0.052
	c-0.272,0.027-0.544,0.041-0.821,0.041c-0.838,0-1.647-0.125-2.408-0.363c-0.119-0.038-0.231-0.084-0.346-0.128
	c-0.133-0.046-0.265-0.089-0.391-0.142C50.972,44.587,48.953,41.765,48.912,38.466z M33.495,48.686
	c-10.704,0-19.383,8.679-19.383,19.385c0,0.261,0.027,0.515,0.036,0.774h38.692c0.012-0.26,0.037-0.514,0.037-0.774
	C52.878,57.364,44.201,48.686,33.495,48.686z M56.982,48.848c-2.933,0-5.634,0.955-7.838,2.556c3.207,3.015,5.539,6.93,6.595,11.349
	h14.585c0.009-0.181,0.027-0.354,0.027-0.535C70.352,54.832,64.365,48.848,56.982,48.848z M28.963,44.265
	c0.185,0.076,0.374,0.138,0.566,0.211c0.167,0.059,0.331,0.128,0.5,0.183c1.104,0.343,2.277,0.528,3.495,0.53
	c0.4,0,0.796-0.023,1.188-0.064c0.174-0.016,0.343-0.05,0.515-0.075c0.213-0.032,0.432-0.055,0.643-0.101
	c0.164-0.032,0.324-0.082,0.486-0.123c0.21-0.051,0.423-0.097,0.631-0.16c0.14-0.046,0.272-0.103,0.407-0.148
	c0.224-0.08,0.45-0.153,0.667-0.245c0.103-0.043,0.199-0.096,0.297-0.142c0.247-0.109,0.494-0.224,0.731-0.35
	c0.058-0.029,0.11-0.068,0.163-0.099c0.276-0.157,0.551-0.317,0.813-0.493c0.007-0.005,0.012-0.012,0.021-0.016
	c3.1-2.104,5.138-5.653,5.143-9.681c0-0.004,0-0.009,0-0.014c0-6.466-5.241-11.707-11.71-11.707c-6.217,0-11.288,4.848-11.67,10.969
	c-0.017,0.245-0.037,0.489-0.037,0.738C21.813,38.327,24.759,42.486,28.963,44.265z"/>
</svg>
