<?xml version="1.0" encoding="utf-8"?>
<!-- Generator: Adobe Illustrator 15.0.2, SVG Export Plug-In . SVG Version: 6.00 Build 0)  -->
<!DOCTYPE svg PUBLIC "-//W3C//DTD SVG 1.1//EN" "http://www.w3.org/Graphics/SVG/1.1/DTD/svg11.dtd">
<svg version="1.1" id="Layer_1" xmlns="http://www.w3.org/2000/svg" xmlns:xlink="http://www.w3.org/1999/xlink" x="0px" y="0px"
	 width="74px" height="72px" viewBox="0 0 74 72" enable-background="new 0 0 74 72" xml:space="preserve">
<path fill="#FFFFFF" d="M69.895,58.404L57.462,45.972L55.21,43.72c-0.091-0.091-0.195-0.151-0.289-0.236
	c2.42-4.177,3.828-9.014,3.828-14.188c0-15.666-12.699-28.365-28.365-28.365S2.019,13.629,2.019,29.295
	c0,15.668,12.699,28.367,28.365,28.367c5.084,0,9.845-1.355,13.973-3.699c0.096,0.11,0.17,0.231,0.274,0.336l2.252,2.252
	l12.433,12.432c2.786,2.783,7.299,2.783,10.081,0l0.498-0.498C72.678,65.703,72.678,61.19,69.895,58.404z M30.387,51.062
	c-12.022,0-21.771-9.74-21.771-21.767c0-12.024,9.749-21.768,21.771-21.768c12.02,0,21.763,9.744,21.763,21.768
	C52.149,41.322,42.406,51.062,30.387,51.062z M32.666,27.011h9.009v4.566h-9.009v9.01h-4.567v-9.01h-9.012v-4.566h9.012V18h4.567
	V27.011z"/>
</svg>
